<svg xmlns="http://www.w3.org/2000/svg" xmlns:xlink="http://www.w3.org/1999/xlink" width="76" height="19" viewBox="0 0 76 19">
  <defs>
    <polygon id="bold-a" points="15.871 17.665 15.871 .924 .182 .924 .182 17.665"/>
  </defs>
  <g fill="none" fill-rule="evenodd" transform="translate(.16)">
    <path fill="#475E85" fill-rule="nonzero" d="M4.29273859,11.1022601 L8.58516598,11.1022601 C9.74408714,11.1022601 10.1735477,11.6817207 10.1735477,12.5403307 C10.1735477,13.4204136 9.74408714,14.0428203 8.58516598,14.0428203 L4.29273859,14.0428203 L4.29273859,11.1022601 Z M4.29273859,5.09261281 L8.07012448,5.09261281 C8.9716805,5.09261281 9.4223029,5.62912733 9.4223029,6.42331821 C9.4223029,7.21750908 8.99284232,7.7540236 7.83392116,7.7540236 L4.29273859,7.7540236 L4.29273859,5.09261281 Z M11.7186722,9.32093231 C12.9637967,8.63410659 13.7576763,7.49634725 13.7576763,5.80091157 C13.7576763,3.13950078 11.9334025,1.18638874 8.32780083,1.18638874 L0,1.18638874 L0,9.37508169 L8.0436722,9.37508169 C9.20726141,9.37508169 10.1072614,8.9820319 10.7181535,8.20713563 C11.173444,7.62954227 11.288278,7.0513265 11.2895228,7.04572484 C11.3427386,6.80267505 11.3704357,6.55060036 11.3729253,6.29323522 C11.3875519,4.68680368 10.3098548,3.55838045 8.55995851,3.34862941 C8.43890041,3.33400285 8.06763485,3.31595306 7.85570539,3.31595306 L2.10591286,3.31595306 L2.11058091,8.46045513 L1.83890041,8.46045513 L1.83921162,3.0383597 L7.86659751,3.04458377 C8.10591286,3.04458377 8.46721992,3.06387837 8.59232365,3.07881613 C10.4623444,3.30319372 11.6604772,4.56574559 11.644917,6.29572484 C11.6424274,6.57176219 11.6119295,6.84250908 11.5556017,7.10018543 C11.5521784,7.11948003 11.1569502,9.04084933 9.0753112,9.53317298 C10.3758299,9.82943854 12.451556,10.6656419 12.451556,12.9844178 C12.451556,14.8503929 11.2210581,15.9772601 9.0753112,16.0759116 C8.75912863,16.0905381 8.43236515,16.1008078 8.07665975,16.1076543 L5.67790456,16.1073431 C5.21950207,16.1029863 4.75829876,16.0986294 4.30518672,16.0986294 L1.83360996,16.1004966 L1.82209544,10.717924 L2.09377593,10.717924 L2.10560166,15.8285049 L4.30487552,15.8269489 C4.75860996,15.8269489 5.22136929,15.8313058 5.66919087,15.8353514 L8.07417012,15.8356626 C8.42489627,15.8291273 8.74885892,15.8188576 9.06286307,15.8045423 C11.0729253,15.7118037 12.1798755,14.7106626 12.1798755,12.9844178 C12.1798755,9.89945928 8.12925311,9.65174144 8.04024896,9.64707339 L0,9.64707339 L0,17.9275713 L9.05757261,17.9275713 C12.4487552,17.9275713 14.5092324,15.9744593 14.5092324,13.2056834 C14.5092324,11.2525713 13.4144191,9.96450078 11.7186722,9.32093231 L11.7186722,9.32093231 Z"/>
    <path fill="#007481" fill-rule="nonzero" d="M32.1720124,9.55691779 C32.1720124,12.0894904 30.1974274,14.1070215 27.6219087,14.1070215 C25.1104979,14.1070215 23.071805,12.0894904 23.071805,9.55691779 C23.071805,7.02434518 25.1104979,5.00681406 27.6219087,5.00681406 C30.1974274,5.00681406 32.1720124,7.02434518 32.1720124,9.55691779 M27.7594606,0.8671875 C27.7613278,1.43668957 27.7557261,2.95473937 27.7557261,2.95473937 C27.7015768,2.95349455 27.6474274,2.95069372 27.5929668,2.95069372 C25.7935892,2.95380576 24.0990871,3.65090119 22.8094606,4.91345306 C21.533527,6.16168957 20.8330083,7.78959414 20.8364315,9.49810036 C20.8429668,12.7259012 23.2074896,15.4218555 26.3232573,16.0162539 L26.3232573,16.2907352 C23.0571784,15.6922912 20.5712863,12.8759012 20.5644398,9.49841157 C20.5610166,7.71615016 21.2907884,6.01884725 22.6190041,4.71895099 C23.9375726,3.42901323 25.6625726,2.70857754 27.4859129,2.68150285 L27.4859129,0.867809907 C22.7170332,0.940631483 18.7361203,4.81573522 18.7361203,9.55691779 C18.7361203,14.2981004 22.7170332,18.1732041 27.4859129,18.2460257 L27.4859129,17.9015236 L27.4921369,16.1370008 C27.533527,16.1376232 27.5746058,16.1401128 27.6159959,16.1401128 L27.6172407,16.1401128 C29.4396473,16.1401128 31.1584232,15.4215443 32.4573859,14.1172912 C33.7115353,12.8578514 34.398361,11.2187435 34.3912033,9.5012124 C34.3840456,7.77403397 33.6754357,6.13897173 32.3970124,4.89758169 C31.4282365,3.95681406 30.2273029,3.33347381 28.926473,3.0798431 L28.926473,2.8075402 C30.3019917,3.06521655 31.5676556,3.71376426 32.5862241,4.70245721 C33.9178631,5.995507 34.6554149,7.69934518 34.6628838,9.50027879 C34.6706639,11.2900091 33.9555187,12.9982041 32.650332,14.3089925 C31.3333195,15.6312954 29.6002282,16.3722705 27.7575934,16.4083701 L27.7575934,18.2460257 C32.5887137,18.1741377 36.5073859,14.2987228 36.5073859,9.55691779 C36.5073859,4.80702152 32.6017842,0.926004927 27.7594606,0.8671875"/>
    <polygon fill="#81A73F" fill-rule="nonzero" points="43.859 1.186 41.789 1.186 41.789 17.928 54.088 17.928 54.088 15.971 43.859 15.971"/>
    <polygon fill="#81A73F" fill-rule="nonzero" points="46.06 1.186 44.145 1.186 44.145 15.685 54.087 15.685 54.087 13.785 46.06 13.785"/>
    <g transform="translate(59.129 .263)">
      <mask id="bold-b" fill="#fff">
        <use xlink:href="#bold-a"/>
      </mask>
      <path fill="#F8981D" fill-rule="nonzero" d="M4.47463693,5.0875402 L7.62961618,5.0875402 C10.1836618,5.0875402 11.5358402,6.78297588 11.5358402,9.29407547 C11.5358402,11.8054863 10.1836618,13.522395 7.62961618,13.522395 L4.47463693,13.522395 L4.47463693,5.0875402 Z M0.19216805,2.72861904 C1.92059129,2.72768543 4.45098548,2.72675182 4.9504668,2.72675182 C6.17007261,2.72675182 7.17059129,2.72924144 8.09922199,2.7345319 C11.0071058,2.75227049 13.0115664,4.31451115 13.742583,7.13401323 C13.7914419,7.39884725 13.8801349,8.30102567 13.8801349,8.95112941 C13.8801349,9.3251958 13.8546162,10.1421045 13.854305,10.620424 C13.8287863,12.5495734 12.4168568,14.6193867 10.7064834,15.2361916 C9.80243776,15.5623327 8.92671162,15.7487435 8.17391079,15.7761294 C7.21945021,15.8100506 6.22204357,15.809117 4.93770747,15.809117 C4.2188278,15.809117 2.02110996,15.8119178 2.02110996,15.8119178 L2.02110996,4.04967713 L2.29310166,4.04967713 L2.29310166,15.5417933 C2.29310166,15.5417933 5.07401452,15.5389925 5.79196058,15.5389925 C7.07318465,15.5389925 7.21291494,15.5383701 8.16426349,15.5041377 C8.88936722,15.4783078 9.73646266,15.2971875 10.614056,14.9803825 C12.2267116,14.3987435 13.5583506,12.4422082 13.5826245,10.6185568 C13.5829357,10.1377477 13.6084544,9.32115016 13.6084544,8.95112941 C13.6084544,8.275507 13.5154046,7.40133688 13.4774378,7.19251945 C12.7822095,4.51337007 10.8707988,3.02332858 8.09735477,3.0065236 C7.16934647,3.00092194 6.16945021,2.99843231 4.9504668,2.99843231 C4.4534751,2.99843231 1.91001037,2.99314186 0.18189834,2.99376426 L0.18189834,17.6648224 L7.95171162,17.6648224 C13.1883299,17.6648224 15.8712137,13.8659634 15.8712137,9.29407547 C15.8712137,4.74428294 13.1883299,0.923639782 7.95171162,0.923639782 L0.18189834,0.923639782 L0.19216805,2.72861904 Z" mask="url(#bold-b)"/>
    </g>
  </g>
</svg>
